<?xml version="1.0" encoding="UTF-8"?>
<svg width="25px" height="25px" viewBox="0 0 25 25" version="1.1" xmlns="http://www.w3.org/2000/svg" xmlns:xlink="http://www.w3.org/1999/xlink">
    <!-- Generator: sketchtool 59.1 (101010) - https://sketch.com -->
    <title>A239B76C-0D64-4F4D-88ED-C6FDF70E751C@1.5x</title>
    <desc>Created with sketchtool.</desc>
    <g id="fin" stroke="none" stroke-width="1" fill="none" fill-rule="evenodd">
        <g id="Fees" transform="translate(-104.000000, -605.000000)">
            <g id="Icons/40/confirm-Copy" transform="translate(104.000000, 605.000000)">
                <g id="Icons/24/confirm">
                    <circle id="Oval-Copy" fill="#DBEFFC" cx="14.1942857" cy="13.9137662" r="9.87428571"></circle>
                    <path d="M12.7600851,2.2301291 L12.5473394,2.23079721 C6.96429658,2.29352801 2.39332229,6.78228899 2.23438334,12.3877936 C2.07119669,18.1431623 6.62808686,22.9615894 12.3876725,23.1248886 C18.1476615,23.2819182 22.9621746,18.7270743 23.1253526,12.9657621 C23.151348,11.9675486 23.0315072,10.9751109 22.7700419,10.0083322 L21.917886,10.8120066 C22.0656063,11.528053 22.1310353,12.2371264 22.113201,12.9444642 C21.9657959,18.1437601 17.6181442,22.2535651 12.4150495,22.112763 C7.21402615,21.9653154 3.099321,17.6161835 3.24008257,12.4148173 C3.38753766,7.2138188 7.73684384,3.09929005 12.9392475,3.24007642 C14.5096466,3.28953674 16.0209991,3.72330626 17.370516,4.50649256 L18.136658,3.78027026 C16.6497224,2.86763984 14.9842877,2.34218742 13.2556738,2.24640313 L12.9344643,2.23352627 L12.7600851,2.2301291 Z M20.6044745,5.7681087 L11.0198046,15.3525675 L8.0585319,12.3983662 C7.8634455,12.2011167 7.54602452,12.2001538 7.34761432,12.3963928 C7.15136632,12.5926364 7.15234043,12.9100269 7.35104069,13.1087206 L11.0197236,16.7834164 L21.3198843,6.48348263 C21.501686,6.30168501 21.518778,6.01044763 21.3680406,5.82244483 L21.3198843,5.7681087 C21.1223281,5.57055682 20.8020308,5.57055682 20.6044745,5.7681087 Z" id="Shape-Copy" fill="#1A2E72" fill-rule="nonzero"></path>
                </g>
            </g>
        </g>
    </g>
</svg>